<svg xmlns="http://www.w3.org/2000/svg" viewBox="0 0 1200 480"><defs><linearGradient id="g" x2="1" y2="1"><stop stop-color="#132b4c"/><stop offset="1" stop-color="#5779ad"/></linearGradient><radialGradient id="m"><stop stop-color="#dff4ff"/><stop offset="1" stop-color="#8eb8e8"/></radialGradient></defs><rect width="1200" height="480" rx="36" fill="url(#g)"/><circle cx="930" cy="175" r="125" fill="url(#m)"/><g fill="#fff" opacity=".45"><circle cx="160" cy="80" r="5"/><circle cx="300" cy="150" r="7"/><circle cx="650" cy="70" r="6"/><circle cx="1080" cy="350" r="5"/></g><path d="M760 430q35-180 170-190t180 190Z" fill="#536b82"/><path d="m820 300-25-100 90 53q45-20 90 0l90-53-25 100q25 38 15 85-16 75-125 75t-125-75q-10-47 15-85Z" fill="#9aaebe"/><circle cx="885" cy="340" r="13" fill="#18324d"/><circle cx="975" cy="340" r="13" fill="#18324d"/><path d="m915 385 15 10 15-10" fill="none" stroke="#18324d" stroke-width="8"/><text x="90" y="225" fill="#fff" font-size="58" font-family="sans-serif" font-weight="700">푸른 달의 러시안블루</text><text x="94" y="285" fill="#cfe9ff" font-size="27" font-family="sans-serif">BLUE MOON SEASON</text></svg>
