<svg xmlns="http://www.w3.org/2000/svg" viewBox="0 0 1600 900"><defs><linearGradient id="s" y2="1"><stop stop-color="#77c9ed"/><stop offset="1" stop-color="#dff5f1"/></linearGradient></defs><rect width="1600" height="900" fill="url(#s)"/><circle cx="1320" cy="150" r="90" fill="#ffe8a2"/><g fill="#fff"><ellipse cx="300" cy="170" rx="150" ry="45"/><ellipse cx="1000" cy="120" rx="130" ry="40"/></g><path d="M0 565Q250 350 520 545T1050 500T1600 475V900H0Z" fill="#79b85c"/><path d="M0 700Q300 470 650 660t570-20q220-130 380-45V900H0Z" fill="#3f7f48"/><path d="M705 900Q690 740 800 630t125-210" fill="none" stroke="#d8c389" stroke-width="95" stroke-linecap="round"/><g fill="#54404c"><ellipse cx="748" cy="720" rx="22" ry="15"/><ellipse cx="812" cy="665" rx="22" ry="15"/><ellipse cx="845" cy="570" rx="20" ry="14"/></g><circle cx="1240" cy="610" r="75" fill="#e86585"/><path d="M1180 580q60 110 120 0m-135 35q75-95 150 0" fill="none" stroke="#fff" stroke-width="8" opacity=".7"/></svg>
