<svg xmlns="http://www.w3.org/2000/svg" viewBox="0 0 1600 900"><defs><linearGradient id="s" y2="1"><stop stop-color="#4b9ed0"/><stop offset="1" stop-color="#bfe8ee"/></linearGradient></defs><rect width="1600" height="900" fill="url(#s)"/><circle cx="1260" cy="130" r="82" fill="#ffd078"/><path d="M0 500h1600v400H0Z" fill="#126b96"/><path d="M0 610q150-55 300 0t300 0 300 0 300 0 300 0" fill="none" stroke="#fff" stroke-width="12" opacity=".3"/><path d="M190 360v410m0-120h630m-500-290v290m320-250v250" stroke="#6b4834" stroke-width="35"/><path d="M930 600h360l-55 85H985Z" fill="#ef7b48"/><path d="M1090 600V445l130 155Zm0-140v140H990Z" fill="#fff5da"/><path d="M440 160q35-35 70 0-35-18-70 0Zm90 20q30-30 60 0-30-15-60 0Z" fill="#273d53"/><rect x="80" y="700" width="210" height="135" rx="8" fill="#d78442"/><path d="M80 745h210m-140-45v135m70-135v135" stroke="#704322" stroke-width="10"/></svg>
