<svg xmlns="http://www.w3.org/2000/svg" viewBox="0 0 1600 900"><rect width="1600" height="900" fill="#203747"/><circle cx="400" cy="250" r="300" fill="#76ffc2" opacity=".18"/><circle cx="1250" cy="420" r="350" fill="#a56eff" opacity=".16"/><g fill="#285c4d"><path d="M80 720 250 190l170 530Z"/><path d="M280 720 500 90l220 630Z"/><path d="M1050 720 1250 120l210 600Z"/></g><path d="M0 700q300-100 600 20t500-20q270-110 500 0v200H0Z" fill="#31523e"/><path d="M700 900q-30-190 80-280t100-190" fill="none" stroke="#9c70c6" stroke-width="90"/><rect x="160" y="630" width="110" height="110" rx="12" fill="#ffcb5c"/><text x="215" y="706" text-anchor="middle" font-size="60" font-family="sans-serif" fill="#5e4772">3</text><g transform="translate(1100 630)" fill="none" stroke="#d2a8ff" stroke-width="24"><circle r="95"/><path d="M0-130v260M-130 0h260M-92-92 92 92M92-92-92 92"/></g></svg>
