<svg xmlns="http://www.w3.org/2000/svg" viewBox="0 0 300 360"><defs><linearGradient id="b" x2="0" y2="1"><stop stop-color="#fff7dc"/><stop offset="1" stop-color="#f2d79c"/></linearGradient></defs><rect width="300" height="360" rx="30" fill="url(#b)"/><path d="M72 128 55 56l67 38c18-8 38-8 56 0l67-38-17 72c18 24 27 56 20 88-11 50-50 86-98 86s-87-36-98-86c-7-32 2-64 20-88Z" fill="#fff" stroke="#3b3545" stroke-width="10"/><circle cx="111" cy="178" r="11" fill="#3b3545"/><circle cx="189" cy="178" r="11" fill="#3b3545"/><path d="m139 205 11 9 11-9m-11 9v17m0 0c-10 12-25 13-35 3m35-3c10 12 25 13 35 3" fill="none" stroke="#3b3545" stroke-width="7" stroke-linecap="round"/><path d="M88 207H25m63 20-57 18m181-38h63m-63 20 57 18" stroke="#3b3545" stroke-width="6" stroke-linecap="round"/><circle cx="88" cy="208" r="15" fill="#f7a5a5" opacity=".65"/><circle cx="212" cy="208" r="15" fill="#f7a5a5" opacity=".65"/></svg>
